<svg xmlns="http://www.w3.org/2000/svg" viewBox="0 0 100 100" width="100" height="100">
  <circle cx="50" cy="50" r="45" fill="#111827" stroke="#EAB308" stroke-width="2"/>
  <g transform="translate(20, 20) scale(0.6)">
    <path d="M40 20C40 8.954 48.954 0 60 0h20c11.046 0 20 8.954 20 20v60c0 11.046-8.954 20-20 20H60c-11.046 0-20-8.954-20-20V20z" fill="#EAB308"/>
    <path d="M0 40C0 28.954 8.954 20 20 20h20c11.046 0 20 8.954 20 20v20c0 11.046-8.954 20-20 20H20C8.954 80 0 71.046 0 60V40z" fill="#EAB308"/>
    <path d="M35 70a5 5 0 015-5h20a5 5 0 010 10H40a5 5 0 01-5-5z" fill="#111827"/>
    <circle cx="60" cy="40" r="10" fill="#111827"/>
    <circle cx="25" cy="50" r="10" fill="#111827"/>
  </g>
  <text x="50" y="85" font-family="Arial, sans-serif" font-size="12" fill="#EAB308" text-anchor="middle">$HMJ</text>
</svg>
